<?xml version="1.0" standalone="no"?>
<!DOCTYPE svg PUBLIC "-//W3C//DTD SVG 20010904//EN"
 "http://www.w3.org/TR/2001/REC-SVG-20010904/DTD/svg10.dtd">
<svg version="1.0" xmlns="http://www.w3.org/2000/svg"
 width="501.000000pt" height="501.000000pt" viewBox="0 0 501.000000 501.000000"
 preserveAspectRatio="xMidYMid meet">
<metadata>
Created by potrace 1.14, written by Peter Selinger 2001-2017
</metadata>
<g transform="translate(0.000000,501.000000) scale(0.100000,-0.100000)"
fill="#000000" stroke="none">
<path d="M2591 4228 c-107 -45 -136 -91 -136 -213 0 -70 3 -85 27 -121 53 -82
112 -109 219 -102 120 9 199 85 207 199 8 111 -51 200 -159 239 -63 24 -100
23 -158 -2z"/>
<path d="M1795 3655 c-55 -7 -118 -18 -140 -25 -22 -7 -58 -14 -80 -17 -22 -3
-52 -14 -67 -24 -15 -11 -30 -18 -35 -17 -8 2 -90 -40 -168 -87 -89 -53 -271
-237 -347 -350 -70 -105 -137 -272 -170 -420 -18 -81 -17 -371 1 -450 16 -74
78 -265 90 -279 5 -6 17 -51 26 -101 21 -105 68 -270 97 -335 11 -25 27 -60
35 -77 18 -43 106 -184 154 -250 77 -103 300 -312 379 -353 100 -52 229 -116
255 -127 167 -64 355 -100 535 -102 156 -2 269 14 448 66 41 12 76 14 143 8
108 -8 259 9 349 41 110 38 140 50 152 62 7 7 17 12 23 12 5 1 26 14 45 30 19
17 40 30 46 30 7 0 51 44 98 98 99 113 181 262 211 382 28 112 25 317 -6 425
-26 90 -27 187 -4 239 7 17 36 56 64 86 69 75 70 75 97 123 13 23 24 51 24 62
0 11 7 30 15 41 28 40 79 268 91 404 8 105 -15 227 -66 345 -4 11 -11 27 -14
35 -4 8 -20 35 -36 60 -16 25 -34 54 -39 65 -10 24 -92 117 -136 156 -185 163
-291 210 -537 239 -163 20 -273 1 -500 -86 -44 -17 -51 -17 -120 -1 -40 9
-120 21 -178 27 -193 20 -245 27 -300 43 -64 17 -229 38 -292 36 -24 -1 -88
-7 -143 -14z m1500 -630 c-5 -2 -22 -6 -37 -9 -29 -7 -34 -20 -19 -45 6 -10
25 -14 56 -13 25 1 44 -2 41 -6 -7 -12 -85 -22 -251 -33 -77 -5 -178 -13 -225
-19 -47 -5 -119 -12 -160 -16 -41 -3 -84 -13 -95 -20 -11 -8 -41 -14 -67 -14
-27 0 -48 -4 -48 -9 0 -5 -17 -11 -37 -14 -66 -8 -147 -48 -171 -85 -29 -44
-28 -51 13 -99 19 -22 31 -44 27 -48 -4 -5 -1 -5 6 -1 8 5 34 -6 67 -28 30
-20 58 -36 62 -36 3 0 14 -6 22 -14 9 -7 69 -41 133 -75 64 -33 134 -70 155
-82 21 -12 51 -29 67 -37 71 -37 237 -148 298 -200 48 -41 75 -74 97 -119 37
-74 37 -87 10 -168 -25 -76 -86 -158 -169 -230 l-64 -55 -252 0 -253 0 -25 26
-24 27 -53 -27 -53 -26 -315 0 c-224 0 -312 3 -304 11 6 6 17 12 24 13 34 6
136 38 151 46 10 6 27 10 38 10 11 0 28 4 38 9 9 5 37 17 62 26 25 9 53 21 62
26 10 5 26 9 37 9 11 0 21 3 23 8 2 4 24 17 50 30 103 50 172 132 170 200 -2
58 -79 157 -208 267 -144 123 -219 200 -294 300 -91 122 -106 170 -74 233 17
34 63 72 88 72 9 0 16 5 16 10 0 6 7 10 15 10 9 0 26 6 38 14 12 8 65 24 117
36 52 12 122 29 154 36 103 25 81 3 -29 -28 -46 -13 -50 -17 -50 -43 0 -26 4
-30 29 -33 16 -2 59 5 95 16 36 11 84 24 105 29 51 11 69 48 31 65 -38 17 -19
28 48 27 34 0 56 -3 50 -6 -20 -8 -15 -41 8 -54 16 -8 37 -8 78 -1 31 6 63 11
71 12 87 2 125 25 110 65 -12 31 -5 35 54 35 32 0 46 -3 38 -9 -8 -4 -12 -19
-10 -32 3 -21 9 -24 53 -27 44 -3 157 10 208 25 12 3 17 12 15 26 -2 18 -11
23 -53 27 -38 5 -44 7 -25 12 26 6 253 9 235 3z"/>
<path d="M2006 2777 c-31 -41 -32 -70 -5 -134 35 -83 79 -114 109 -78 11 13
10 22 -7 53 -28 51 -35 99 -21 139 10 29 10 36 -2 43 -27 17 -49 10 -74 -23z"/>
<path d="M2152 2511 c-24 -16 -20 -41 11 -71 59 -56 114 -100 126 -100 6 0 11
-4 11 -9 0 -15 51 -23 66 -10 24 20 16 45 -23 71 -21 14 -60 46 -88 71 -48 44
-84 61 -103 48z"/>
<path d="M2432 2284 c-14 -25 -3 -53 27 -68 14 -8 39 -26 55 -39 17 -14 52
-38 78 -52 39 -21 52 -24 63 -15 23 19 18 46 -12 69 -142 109 -194 136 -211
105z"/>
<path d="M2733 2073 c-24 -9 -13 -43 27 -84 37 -38 40 -46 40 -95 0 -53 0 -54
30 -54 36 0 50 23 50 81 0 84 -89 176 -147 152z"/>
<path d="M2705 1755 c-16 -12 -44 -31 -60 -42 -86 -51 -105 -66 -105 -83 0
-44 54 -44 120 0 14 9 41 27 60 40 47 30 73 66 65 90 -9 27 -43 25 -80 -5z"/>
<path d="M4547 2512 c-57 -20 -122 -81 -148 -137 -28 -60 -26 -163 5 -223 52
-103 123 -146 241 -146 87 0 118 11 179 64 59 52 80 104 81 195 0 58 -5 89
-18 112 -70 130 -205 183 -340 135z"/>
<path d="M435 2209 c-32 -28 -35 -36 -35 -85 0 -45 5 -59 29 -86 27 -30 35
-33 86 -33 53 0 59 3 91 37 102 112 -57 267 -171 167z"/>
<path d="M4140 1962 c-88 -39 -115 -146 -55 -215 64 -72 177 -58 216 27 24 53
24 83 -1 124 -35 57 -109 87 -160 64z"/>
<path d="M905 1028 c-135 -47 -117 -239 25 -263 34 -6 47 -2 84 21 50 31 66
58 66 109 0 71 -34 117 -99 135 -42 11 -37 12 -76 -2z"/>
</g>
</svg>
