<svg xmlns="http://www.w3.org/2000/svg" xmlns:xlink="http://www.w3.org/1999/xlink" version="1.1" viewBox="0 0 24 24" style="enable-background:new 0 0 24 24;" xml:space="preserve">
	<path d="M15.5,13c0,1.4-1.54,2.5-3.5,2.5S8.5,14.4,8.5,13c0-0.28,0.22-0.5,0.5-0.5s0.5,0.22,0.5,0.5c0,0.81,1.14,1.5,2.5,1.5  s2.5-0.69,2.5-1.5c0-0.28,0.22-0.5,0.5-0.5S15.5,12.72,15.5,13z" />
	<path d="M9,10.5c0.94,0,1.29-0.55,1.42-1H6.98C7.4,9.97,8.08,10.5,9,10.5z M15,10.5c0.92,0,1.6-0.53,2.02-1h-3.44  C13.71,9.95,14.06,10.5,15,10.5z M19.5,9c0,0.28-0.22,0.5-0.5,0.5h-0.72c-0.37,0.6-1.44,2-3.28,2c-1.64,0-2.27-1.12-2.44-2h-1.12  c-0.17,0.88-0.8,2-2.44,2c-1.84,0-2.91-1.4-3.28-2H5C4.72,9.5,4.5,9.28,4.5,9c0-0.07,0.01-0.14,0.04-0.2C4.61,8.62,4.79,8.5,5,8.5  h14c0.21,0,0.39,0.12,0.46,0.3C19.49,8.86,19.5,8.93,19.5,9z" />
	<path d="M12,2.5c-4.09,0-7.59,2.6-8.92,6.23C2.7,9.75,2.5,10.85,2.5,12c0,5.24,4.26,9.5,9.5,9.5s9.5-4.26,9.5-9.5  c0-1.15-0.2-2.25-0.58-3.27C19.59,5.1,16.09,2.5,12,2.5z M12,22.5C6.21,22.5,1.5,17.79,1.5,12S6.21,1.5,12,1.5S22.5,6.21,22.5,12  S17.79,22.5,12,22.5z" />
</svg>
