<svg width="40" height="40" viewBox="0 0 40 40" fill="none" xmlns="http://www.w3.org/2000/svg">
	<circle cx="20.0007" cy="20" r="16.6667" fill="white" />
	<path d="M24.0076 13.6361L20.0008 17.643L15.9938 13.6361C15.6033 13.2455 14.9701 13.2455 14.5796 13.6361L13.6368 14.5789C13.2463 14.9694 13.2463 15.6026 13.6368 15.9931L17.6438 20L13.6368 24.0069C13.2463 24.3974 13.2463 25.0306 13.6368 25.4211L14.5796 26.3639C14.9701 26.7544 15.6033 26.7544 15.9938 26.3639L20.0008 22.357L24.0076 26.3639C24.3982 26.7544 25.0313 26.7544 25.4219 26.3639L26.3646 25.4211C26.7552 25.0306 26.7552 24.3974 26.3646 24.0069L22.3578 20L26.3647 15.9931C26.7552 15.6026 26.7552 14.9694 26.3647 14.5789L25.4219 13.6361C25.0313 13.2455 24.3982 13.2455 24.0076 13.6361Z" fill="currentColor" />
</svg>
