<svg width="9" height="9" viewBox="0 0 9 9" fill="none" xmlns="http://www.w3.org/2000/svg">
	<path d="M8.20978 0.135583C8.39057 -0.0451945 8.68363 -0.0451945 8.86441 0.135583C9.0452 0.316367 9.0452 0.609467 8.86441 0.790245L5.15465 4.49998L8.86441 8.20973C9.0452 8.39051 9.0452 8.68363 8.86441 8.86441C8.68363 9.0452 8.39057 9.0452 8.20978 8.86441L4.49997 5.15467L0.790252 8.86435C0.767656 8.887 0.7433 8.90675 0.71763 8.92373C0.53795 9.04236 0.29377 9.02254 0.135588 8.86435C-0.0451961 8.68363 -0.0451961 8.39051 0.135588 8.20973L3.84534 4.49998L0.135588 0.790276C-0.04519 0.609498 -0.04519 0.316392 0.135588 0.135614C0.316367 -0.0451635 0.609474 -0.0451635 0.790252 0.135614L4.49997 3.84536L8.20978 0.135583Z" fill="currentColor" />
</svg>
