<svg width="21" height="19" viewBox="0 0 21 19" fill="none" xmlns="http://www.w3.org/2000/svg">
	<path fill-rule="evenodd" clip-rule="evenodd" d="M9.49997 11.7004V17.7004C9.49997 18.2526 9.05227 18.7004 8.49997 18.7004H3.50001C2.94772 18.7004 2.50001 18.2526 2.50001 17.7004V8.70044H0.684838C0.216748 8.70044 0.00529774 8.11474 0.365418 7.81574L9.22237 0.46131C9.96307 -0.15377 11.037 -0.15377 11.7777 0.46131L20.6346 7.81574C20.9947 8.11474 20.7833 8.70044 20.3152 8.70044H18.5V17.7004C18.5 18.2526 18.0523 18.7004 17.5 18.7004H12.5C11.9478 18.7004 11.5 18.2526 11.5 17.7004V11.7004H9.49997ZM4.00001 8.70044L4 8.69654V6.74742L10.1806 1.61533C10.3658 1.46156 10.6343 1.46156 10.8195 1.61533L17 6.74742V17.2004H13V11.7004V11.6966V11.2004C13 10.6481 12.5523 10.2004 12 10.2004H8.99997C8.44772 10.2004 8 10.6481 8 11.2004L8.00001 17.2004H4.00001V8.70044Z" fill="currentColor" />
</svg>
