<svg width="23" height="23" viewBox="0 0 23 23" fill="none" xmlns="http://www.w3.org/2000/svg">
	<g clip-path="url(#clip0_354_1132)">
		<path d="M11.5 23C17.8513 23 23 17.8513 23 11.5C23 5.14873 17.8513 0 11.5 0C5.14873 0 0 5.14873 0 11.5C0 17.8513 5.14873 23 11.5 23Z" fill="#FEE187" />
		<path d="M16.7035 6.3889L15.9066 6.96229L14.0555 5.11115L9.25422 11.0096L9.36967 11.125L4.74326 11.5L9.22588 15.9826L7.85702 17.0661V16.1981L5.75 17.25L6.57831 18.0783L6.09927 18.4575L10.6076 22.9658C10.9021 22.9884 11.1997 23 11.5 23C17.4699 23 22.3769 18.4509 22.9447 12.6301L16.7035 6.3889Z" fill="#FFC61B" />
		<path d="M8.13091 18.6724H6.48223C6.23386 18.6724 6.03261 18.471 6.03261 18.2227V16.2773C6.03261 16.0289 6.23395 15.8276 6.48223 15.8276H8.13095C8.37933 15.8276 8.58058 16.029 8.58058 16.2773V18.2227C8.58053 18.4711 8.37928 18.6724 8.13091 18.6724Z" fill="#272525" />
		<path d="M16.5177 18.6724H14.869C14.6206 18.6724 14.4194 18.471 14.4194 18.2227V16.2773C14.4194 16.0289 14.6207 15.8276 14.869 15.8276H16.5177C16.7661 15.8276 16.9674 16.029 16.9674 16.2773V18.2227C16.9674 18.4711 16.7661 18.6724 16.5177 18.6724Z" fill="#272525" />
		<path d="M17.25 17.25H5.75V7.76991C5.75 6.65437 6.65437 5.75 7.76991 5.75H15.2301C16.3456 5.75 17.25 6.65437 17.25 7.76991V17.25Z" fill="#C92F00" />
		<path d="M17.25 7.76991C17.25 6.65437 16.3456 5.75 15.2301 5.75H11.4742V17.25H17.25V7.76991Z" fill="#930000" />
		<path d="M5.75 14.7418H7.84385C8.58295 14.7418 9.18221 14.1341 9.18221 13.3844V13.316H5.75V14.7418Z" fill="#FFEDB5" />
		<path d="M17.25 14.7418H15.1562C14.4171 14.7418 13.8178 14.1341 13.8178 13.3844V13.316H17.25V14.7418Z" fill="#FFC61B" />
		<path d="M17.25 15.6524H5.75V17.2498H17.25V15.6524Z" fill="#273B7A" />
		<path d="M17.25 15.6524H11.4744V17.2498H17.25V15.6524Z" fill="#121149" />
		<path d="M16.6111 7.66669H6.38889V11.5H16.6111V7.66669Z" fill="white" />
		<path d="M16.6111 7.66669H11.4744V11.5H16.6111V7.66669Z" fill="#D0D1D3" />
		<path d="M14.0556 5.11115H8.94444V6.3889H14.0556V5.11115Z" fill="#273B7A" />
		<path d="M14.0556 5.11115H11.4744V6.3889H14.0556V5.11115Z" fill="#121149" />
		<path d="M6.02101 8.94446H4.74326V11.5H6.02101V8.94446Z" fill="#E09112" />
		<path d="M18.2567 8.94446H16.9789V11.5H18.2567V8.94446Z" fill="#FF5419" />
	</g>
	<defs>
		<clipPath id="clip0_354_1132">
			<rect width="23" height="23" fill="white" />
		</clipPath>
	</defs>
</svg>
