<svg width="17" height="18" viewBox="0 0 17 18" fill="none" xmlns="http://www.w3.org/2000/svg">
	<path fill-rule="evenodd" clip-rule="evenodd" d="M12.5 4C12.5 6.20914 10.7091 8 8.5 8C6.29086 8 4.5 6.20914 4.5 4C4.5 1.79086 6.29086 0 8.5 0C10.7091 0 12.5 1.79086 12.5 4ZM11 4C11 5.38071 9.8807 6.5 8.5 6.5C7.1193 6.5 6 5.38071 6 4C6 2.61929 7.1193 1.5 8.5 1.5C9.8807 1.5 11 2.61929 11 4Z" fill="currentColor" />
	<path fill-rule="evenodd" clip-rule="evenodd" d="M16.5 14.1666C16.5 13.7333 16.3642 13.3074 16.0815 12.979C14.2476 10.8488 11.5313 9.5 8.5 9.5C5.46866 9.5 2.75235 10.8488 0.91847 12.979C0.63576 13.3074 0.5 13.7333 0.5 14.1666V16C0.5 17.1046 1.39543 18 2.5 18H14.5C15.6046 18 16.5 17.1046 16.5 16V14.1666ZM14.5 16.5C14.7761 16.5 15 16.2761 15 16V14.1666C15 14.0384 14.9601 13.9754 14.9448 13.9576C13.3837 12.1443 11.0763 11 8.5 11C5.9237 11 3.61631 12.1443 2.05524 13.9576C2.03991 13.9754 2 14.0384 2 14.1666V16C2 16.2761 2.22386 16.5 2.5 16.5H14.5Z" fill="currentColor" />
</svg>
