<svg width="16" height="21" viewBox="0 0 16 21" fill="none" xmlns="http://www.w3.org/2000/svg">
	<path d="M12 9C12 9.4142 11.6642 9.75 11.25 9.75H4.75C4.33579 9.75 4 9.4142 4 9C4 8.58579 4.33579 8.25 4.75 8.25H11.25C11.6642 8.25 12 8.58579 12 9Z" fill="currentColor" />
	<path d="M10 13C10 13.4142 9.6642 13.75 9.25 13.75H4.75C4.33579 13.75 4 13.4142 4 13C4 12.5858 4.33579 12.25 4.75 12.25H9.25C9.6642 12.25 10 12.5858 10 13Z" fill="currentColor" />
	<path fill-rule="evenodd" clip-rule="evenodd" d="M6 0C4.89543 0 4 0.89543 4 2H2C0.89543 2 0 2.89543 0 4V19C0 20.1046 0.89543 21 2 21H14C15.1046 21 16 20.1046 16 19V4C16 2.89543 15.1046 2 14 2H12C12 0.89543 11.1046 0 10 0H6ZM10.5 2C10.5 1.72386 10.2761 1.5 10 1.5H6C5.72386 1.5 5.5 1.72386 5.5 2V3.5C5.5 3.77614 5.72386 4 6 4H10C10.2761 4 10.5 3.77614 10.5 3.5V2ZM12 3.5C12 4.60457 11.1046 5.5 10 5.5H6C4.89543 5.5 4 4.60457 4 3.5H2C1.72386 3.5 1.5 3.72386 1.5 4V19C1.5 19.2761 1.72386 19.5 2 19.5H14C14.2761 19.5 14.5 19.2761 14.5 19V4C14.5 3.72386 14.2761 3.5 14 3.5H12Z" fill="currentColor" />
</svg>
