<svg width="23" height="19" viewBox="0 0 23 19" fill="none" xmlns="http://www.w3.org/2000/svg">
	<path fill-rule="evenodd" clip-rule="evenodd" d="M14.3887 18.3753L8.61135 16.6246C8.34021 16.5425 8.05471 16.5189 7.77376 16.5553L2.75758 17.2068C1.56078 17.3622 0.5 16.4303 0.5 15.2234V3.25705C0.5 2.25205 1.2458 1.40314 2.24242 1.27371L7.77376 0.555354C8.05471 0.518864 8.34021 0.542484 8.61135 0.624654L14.3887 2.37534C14.6598 2.45751 14.9453 2.48113 15.2262 2.44464L20.2424 1.79319C21.4392 1.63776 22.5 2.56969 22.5 3.77653V15.7429C22.5 16.7479 21.7542 17.5968 20.7576 17.7263L15.2262 18.4446C14.9453 18.4811 14.6598 18.4575 14.3887 18.3753ZM13.9536 3.81088C13.9856 3.82058 14.0178 3.82981 14.05 3.83858V16.7054L9.04636 15.1891C9.01435 15.1794 8.98223 15.1702 8.95 15.1614V2.29463L13.9536 3.81088ZM7.45 2.10999L2.43561 2.76121C2.18645 2.79357 2 3.0058 2 3.25705V15.2234C2 15.5252 2.2652 15.7581 2.56439 15.7193L7.45 15.0848V2.10999ZM15.55 16.89L20.5644 16.2388C20.8136 16.2064 21 15.9942 21 15.7429V3.77653C21 3.47482 20.7348 3.24184 20.4356 3.28069L15.55 3.91519V16.89Z" fill="currentColor" />
</svg>
